<?xml version="1.0" encoding="UTF-8" standalone="no"?>
<svg
	xmlns="http://www.w3.org/2000/svg"
	width="1000"
	height="1000"
	viewBox="0 0 800 800">

	<g id="closeLightOn" transform="translate(0, 0) scale(0.02)" fill="#ffffff">
		<path d="M230 1028 c-11 -19 -17 -41 -14 -53 3 -11 81 -95 172 -187 l167 -168 -169 -169 c-149 -149 -169 -173 -169 -202 0 -43 44 -83 82 -74 15 4 94 74 194 173 l167 167 168 -167 c96 -96 178 -169 192 -173 40 -10 80 27 80 73 0 33 -13 49 -167 204 l-167 168 167 168 c146 147 167 172 167 200 0 41 -31 72 -72 72 -28 0 -53 -21 -200 -167 l-168 -167 -168 167 c-157 156 -171 167 -205 167 -31 0 -40 -5 -57 -32z"/>
	</g>
	<g id="closeLightOff" transform="translate(40, 0) scale(0.02)" fill="#ffbb00">
		<path d="M230 1028 c-11 -19 -17 -41 -14 -53 3 -11 81 -95 172 -187 l167 -168 -169 -169 c-149 -149 -169 -173 -169 -202 0 -43 44 -83 82 -74 15 4 94 74 194 173 l167 167 168 -167 c96 -96 178 -169 192 -173 40 -10 80 27 80 73 0 33 -13 49 -167 204 l-167 168 167 168 c146 147 167 172 167 200 0 41 -31 72 -72 72 -28 0 -53 -21 -200 -167 l-168 -167 -168 167 c-157 156 -171 167 -205 167 -31 0 -40 -5 -57 -32z"/>
	</g>
	<g id="closeLightGrey" transform="translate(80, 0) scale(0.02)" fill="#666666">
		<path d="M230 1028 c-11 -19 -17 -41 -14 -53 3 -11 81 -95 172 -187 l167 -168 -169 -169 c-149 -149 -169 -173 -169 -202 0 -43 44 -83 82 -74 15 4 94 74 194 173 l167 167 168 -167 c96 -96 178 -169 192 -173 40 -10 80 27 80 73 0 33 -13 49 -167 204 l-167 168 167 168 c146 147 167 172 167 200 0 41 -31 72 -72 72 -28 0 -53 -21 -200 -167 l-168 -167 -168 167 c-157 156 -171 167 -205 167 -31 0 -40 -5 -57 -32z"/>
	</g>
	<g id="soundOffLightOn" transform="translate(120, 0) scale(0.018)" fill="#ffffff">
		<path d="M497 1021 l-167 -168 0 -213 0 -214 157 -159 c87 -87 166 -163 176 -168 13 -8 25 -6 43 6 l24 15 0 520 0 519 -22 15 c-12 9 -27 16 -33 16 -6 0 -86 -76 -178 -169z"/>
		<path d="M111 824 c-19 -24 -21 -40 -21 -184 0 -144 2 -160 21 -184 19 -24 27 -26 93 -26 l72 0 0 210 -1 210 -72 0 c-65 0 -73 -2 -92 -26z"/>
		<path d="M833 784 c-4 -10 13 -34 51 -73 31 -31 56 -61 56 -66 0 -5 -26 -35 -57 -67 -54 -55 -56 -59 -40 -75 16 -16 20 -14 75 40 32 31 62 57 67 57 6 0 34 -25 62 -55 54 -56 79 -67 90 -39 4 10 -13 34 -51 73 -31 31 -56 61 -56 66 0 5 25 35 56 66 52 53 55 57 38 73 -16 17 -20 14 -73 -38 -31 -31 -61 -56 -67 -56 -5 0 -34 25 -64 55 -56 57 -76 66 -87 39z"/>
	</g>
	<g id="soundOffLightOff" transform="translate(160, 0) scale(0.018)" fill="#ffbb00">
		<path d="M497 1021 l-167 -168 0 -213 0 -214 157 -159 c87 -87 166 -163 176 -168 13 -8 25 -6 43 6 l24 15 0 520 0 519 -22 15 c-12 9 -27 16 -33 16 -6 0 -86 -76 -178 -169z"/>
		<path d="M111 824 c-19 -24 -21 -40 -21 -184 0 -144 2 -160 21 -184 19 -24 27 -26 93 -26 l72 0 0 210 -1 210 -72 0 c-65 0 -73 -2 -92 -26z"/>
		<path d="M833 784 c-4 -10 13 -34 51 -73 31 -31 56 -61 56 -66 0 -5 -26 -35 -57 -67 -54 -55 -56 -59 -40 -75 16 -16 20 -14 75 40 32 31 62 57 67 57 6 0 34 -25 62 -55 54 -56 79 -67 90 -39 4 10 -13 34 -51 73 -31 31 -56 61 -56 66 0 5 25 35 56 66 52 53 55 57 38 73 -16 17 -20 14 -73 -38 -31 -31 -61 -56 -67 -56 -5 0 -34 25 -64 55 -56 57 -76 66 -87 39z"/>
	</g>
	<g id="soundOffLightGrey" transform="translate(200, 0) scale(0.018)" fill="#666666">
		<path d="M497 1021 l-167 -168 0 -213 0 -214 157 -159 c87 -87 166 -163 176 -168 13 -8 25 -6 43 6 l24 15 0 520 0 519 -22 15 c-12 9 -27 16 -33 16 -6 0 -86 -76 -178 -169z"/>
		<path d="M111 824 c-19 -24 -21 -40 -21 -184 0 -144 2 -160 21 -184 19 -24 27 -26 93 -26 l72 0 0 210 -1 210 -72 0 c-65 0 -73 -2 -92 -26z"/>
		<path d="M833 784 c-4 -10 13 -34 51 -73 31 -31 56 -61 56 -66 0 -5 -26 -35 -57 -67 -54 -55 -56 -59 -40 -75 16 -16 20 -14 75 40 32 31 62 57 67 57 6 0 34 -25 62 -55 54 -56 79 -67 90 -39 4 10 -13 34 -51 73 -31 31 -56 61 -56 66 0 5 25 35 56 66 52 53 55 57 38 73 -16 17 -20 14 -73 -38 -31 -31 -61 -56 -67 -56 -5 0 -34 25 -64 55 -56 57 -76 66 -87 39z"/>
	</g>
	<g id="soundOnLightOn" transform="translate(240, 0) scale(0.018)" fill="#ffffff">
		<path d="M497 1021 l-167 -168 0 -213 0 -214 157 -159 c87 -87 166 -163 176 -168 13 -8 25 -6 43 6 l24 15 0 520 0 519 -22 15 c-12 9 -27 16 -33 16 -6 0 -86 -76 -178 -169z"/>
		<path d="M984 969 c-4 -7 10 -27 32 -48 62 -57 94 -106 115 -172 24 -78 24 -151 -1 -224 -22 -65 -49 -103 -112 -164 -32 -30 -40 -43 -31 -52 26 -26 137 95 174 190 56 149 20 310 -97 427 -56 56 -68 62 -80 43z"/>
		<path d="M903 849 c-8 -8 -2 -19 23 -42 52 -45 74 -95 74 -167 0 -72 -22 -122 -74 -168 -29 -25 -32 -32 -21 -42 27 -23 93 43 121 122 32 91 9 200 -57 268 -42 43 -49 46 -66 29z"/>
		<path d="M111 824 c-19 -24 -21 -40 -21 -184 0 -144 2 -160 21 -184 19 -24 27 -26 93 -26 l72 0 0 210 -1 210 -72 0 c-65 0 -73 -2 -92 -26z"/>
		<path d="M823 729 c-8 -8 -4 -17 13 -34 32 -32 32 -78 0 -110 -20 -20 -22 -26 -10 -36 17 -14 38 1 60 42 20 39 18 71 -8 109 -26 38 -39 45 -55 29z"/>
	</g>
	<g id="soundOnLightOff" transform="translate(280, 0) scale(0.018)" fill="#ffbb00">
		<path d="M497 1021 l-167 -168 0 -213 0 -214 157 -159 c87 -87 166 -163 176 -168 13 -8 25 -6 43 6 l24 15 0 520 0 519 -22 15 c-12 9 -27 16 -33 16 -6 0 -86 -76 -178 -169z"/>
		<path d="M984 969 c-4 -7 10 -27 32 -48 62 -57 94 -106 115 -172 24 -78 24 -151 -1 -224 -22 -65 -49 -103 -112 -164 -32 -30 -40 -43 -31 -52 26 -26 137 95 174 190 56 149 20 310 -97 427 -56 56 -68 62 -80 43z"/>
		<path d="M903 849 c-8 -8 -2 -19 23 -42 52 -45 74 -95 74 -167 0 -72 -22 -122 -74 -168 -29 -25 -32 -32 -21 -42 27 -23 93 43 121 122 32 91 9 200 -57 268 -42 43 -49 46 -66 29z"/>
		<path d="M111 824 c-19 -24 -21 -40 -21 -184 0 -144 2 -160 21 -184 19 -24 27 -26 93 -26 l72 0 0 210 -1 210 -72 0 c-65 0 -73 -2 -92 -26z"/>
		<path d="M823 729 c-8 -8 -4 -17 13 -34 32 -32 32 -78 0 -110 -20 -20 -22 -26 -10 -36 17 -14 38 1 60 42 20 39 18 71 -8 109 -26 38 -39 45 -55 29z"/>
	</g>
	<g id="soundOnLightGrey" transform="translate(320, 0) scale(0.018)" fill="#666666">
		<path d="M497 1021 l-167 -168 0 -213 0 -214 157 -159 c87 -87 166 -163 176 -168 13 -8 25 -6 43 6 l24 15 0 520 0 519 -22 15 c-12 9 -27 16 -33 16 -6 0 -86 -76 -178 -169z"/>
		<path d="M984 969 c-4 -7 10 -27 32 -48 62 -57 94 -106 115 -172 24 -78 24 -151 -1 -224 -22 -65 -49 -103 -112 -164 -32 -30 -40 -43 -31 -52 26 -26 137 95 174 190 56 149 20 310 -97 427 -56 56 -68 62 -80 43z"/>
		<path d="M903 849 c-8 -8 -2 -19 23 -42 52 -45 74 -95 74 -167 0 -72 -22 -122 -74 -168 -29 -25 -32 -32 -21 -42 27 -23 93 43 121 122 32 91 9 200 -57 268 -42 43 -49 46 -66 29z"/>
		<path d="M111 824 c-19 -24 -21 -40 -21 -184 0 -144 2 -160 21 -184 19 -24 27 -26 93 -26 l72 0 0 210 -1 210 -72 0 c-65 0 -73 -2 -92 -26z"/>
		<path d="M823 729 c-8 -8 -4 -17 13 -34 32 -32 32 -78 0 -110 -20 -20 -22 -26 -10 -36 17 -14 38 1 60 42 20 39 18 71 -8 109 -26 38 -39 45 -55 29z"/>
	</g>
	<g id="playButtonLightOn" transform="translate(360, 0) scale(0.045)" fill="#ffffff">
		<path d="M393.538,203.629L102.557,5.543c-9.793-6.666-22.468-7.372-32.94-1.832c-10.472,5.538-17.022,16.413-17.022,28.26v396.173
			c0,11.846,6.55,22.721,17.022,28.26c10.471,5.539,23.147,4.834,32.94-1.832l290.981-198.087
			c8.746-5.954,13.98-15.848,13.98-26.428C407.519,219.477,402.285,209.582,393.538,203.629z"/>
	</g>
	<g id="playButtonLightOff" transform="translate(400, 0) scale(0.045)" fill="#ffbb00">
		<path d="M393.538,203.629L102.557,5.543c-9.793-6.666-22.468-7.372-32.94-1.832c-10.472,5.538-17.022,16.413-17.022,28.26v396.173
			c0,11.846,6.55,22.721,17.022,28.26c10.471,5.539,23.147,4.834,32.94-1.832l290.981-198.087
			c8.746-5.954,13.98-15.848,13.98-26.428C407.519,219.477,402.285,209.582,393.538,203.629z"/>
	</g>
	<g id="playButtonLightGrey" transform="translate(440, 0) scale(0.045)" fill="#666666">
		<path d="M393.538,203.629L102.557,5.543c-9.793-6.666-22.468-7.372-32.94-1.832c-10.472,5.538-17.022,16.413-17.022,28.26v396.173
			c0,11.846,6.55,22.721,17.022,28.26c10.471,5.539,23.147,4.834,32.94-1.832l290.981-198.087
			c8.746-5.954,13.98-15.848,13.98-26.428C407.519,219.477,402.285,209.582,393.538,203.629z"/>
	</g>
	<g id="pauseButtonLightOn" transform="translate(480, 0) scale(0.9)" fill="#ffffff">
		<path d="M5.163 3.819C5 4.139 5 4.559 5 5.4v13.2c0 .84 0 1.26.163 1.581a1.5 1.5 0 0 0 .656.655c.32.164.74.164 1.581.164h.2c.84 0 1.26 0 1.581-.163a1.5 1.5 0 0 0 .656-.656c.163-.32.163-.74.163-1.581V5.4c0-.84 0-1.26-.163-1.581a1.5 1.5 0 0 0-.656-.656C8.861 3 8.441 3 7.6 3h-.2c-.84 0-1.26 0-1.581.163a1.5 1.5 0 0 0-.656.656zm9 0C14 4.139 14 4.559 14 5.4v13.2c0 .84 0 1.26.164 1.581a1.5 1.5 0 0 0 .655.655c.32.164.74.164 1.581.164h.2c.84 0 1.26 0 1.581-.163a1.5 1.5 0 0 0 .655-.656c.164-.32.164-.74.164-1.581V5.4c0-.84 0-1.26-.163-1.581a1.5 1.5 0 0 0-.656-.656C17.861 3 17.441 3 16.6 3h-.2c-.84 0-1.26 0-1.581.163a1.5 1.5 0 0 0-.655.656z"/>
	</g>
	<g id="pauseButtonLightOff" transform="translate(520, 0) scale(0.9)" fill="#ffbb00">
		<path d="M5.163 3.819C5 4.139 5 4.559 5 5.4v13.2c0 .84 0 1.26.163 1.581a1.5 1.5 0 0 0 .656.655c.32.164.74.164 1.581.164h.2c.84 0 1.26 0 1.581-.163a1.5 1.5 0 0 0 .656-.656c.163-.32.163-.74.163-1.581V5.4c0-.84 0-1.26-.163-1.581a1.5 1.5 0 0 0-.656-.656C8.861 3 8.441 3 7.6 3h-.2c-.84 0-1.26 0-1.581.163a1.5 1.5 0 0 0-.656.656zm9 0C14 4.139 14 4.559 14 5.4v13.2c0 .84 0 1.26.164 1.581a1.5 1.5 0 0 0 .655.655c.32.164.74.164 1.581.164h.2c.84 0 1.26 0 1.581-.163a1.5 1.5 0 0 0 .655-.656c.164-.32.164-.74.164-1.581V5.4c0-.84 0-1.26-.163-1.581a1.5 1.5 0 0 0-.656-.656C17.861 3 17.441 3 16.6 3h-.2c-.84 0-1.26 0-1.581.163a1.5 1.5 0 0 0-.655.656z"/>
	</g>
	<g id="pauseButtonLightGrey" transform="translate(560, 0) scale(0.9)" fill="#666666">
		<path d="M5.163 3.819C5 4.139 5 4.559 5 5.4v13.2c0 .84 0 1.26.163 1.581a1.5 1.5 0 0 0 .656.655c.32.164.74.164 1.581.164h.2c.84 0 1.26 0 1.581-.163a1.5 1.5 0 0 0 .656-.656c.163-.32.163-.74.163-1.581V5.4c0-.84 0-1.26-.163-1.581a1.5 1.5 0 0 0-.656-.656C8.861 3 8.441 3 7.6 3h-.2c-.84 0-1.26 0-1.581.163a1.5 1.5 0 0 0-.656.656zm9 0C14 4.139 14 4.559 14 5.4v13.2c0 .84 0 1.26.164 1.581a1.5 1.5 0 0 0 .655.655c.32.164.74.164 1.581.164h.2c.84 0 1.26 0 1.581-.163a1.5 1.5 0 0 0 .655-.656c.164-.32.164-.74.164-1.581V5.4c0-.84 0-1.26-.163-1.581a1.5 1.5 0 0 0-.656-.656C17.861 3 17.441 3 16.6 3h-.2c-.84 0-1.26 0-1.581.163a1.5 1.5 0 0 0-.655.656z"/>
	</g>
</svg>
